<svg xmlns="http://www.w3.org/2000/svg" width="28" height="28" fill="none" stroke="#fff" stroke-linecap="round" stroke-linejoin="round" stroke-width="2" class="icon icon-tabler icon-tabler-bluetooth-x">
    <path d="M1.47 0H7c.81 0 1.47.65 1.47 1.47V7c0 .81-.66 1.47-1.47 1.47H1.47C.65 8.47 0 7.8 0 7V1.47C0 .65.65 0 1.47 0Z" style="fill:#1c2128;fill-opacity:1;stroke:#adbac7;stroke-width:.264434;stroke-linecap:butt;stroke-linejoin:round;stroke-dasharray:none;stroke-opacity:1;paint-order:normal" transform="matrix(3.20687 0 0 3.20682 .42 .42)"/>
    <path stroke="none" d="M2 2h24v24H2Z"/>
    <path d="m7.5 10 10 8-5 4V6l1 .8m0 6.4-6 4.8m9-10 4 4m0-4-4 4"/>
</svg>
