<svg xmlns="http://www.w3.org/2000/svg" width="28" height="28" viewBox="0 -960 1120 1120">
    <path d="M1.47 0H7c.81 0 1.47.65 1.47 1.47V7c0 .81-.66 1.47-1.47 1.47H1.47C.65 8.47 0 7.8 0 7V1.47C0 .65.65 0 1.47 0Z" style="fill:#1c2128;fill-opacity:1;stroke:#adbac7;stroke-width:.264583;stroke-linecap:butt;stroke-linejoin:round;stroke-dasharray:none;stroke-opacity:1;paint-order:normal" transform="matrix(128.27481 0 0 128.27293 16.97 -943.03)"/>
    <path fill="#fff" d="M468-240q-96-5-162-74t-66-166q0-100 70-170t170-70q97 0 166 66t74 162l-84-25q-13-54-56-88.5T480-640q-66 0-113 47t-47 113q0 57 34.5 100t88.5 56zM821-60 650-231 600-80 480-480l400 120-151 50 171 171z"/>
</svg>
