<svg xmlns="http://www.w3.org/2000/svg" width="28" height="28" viewBox="0 -960 1120 1120">
    <path d="M1.47 0H7c.81 0 1.47.65 1.47 1.47V7c0 .81-.66 1.47-1.47 1.47H1.47C.65 8.47 0 7.8 0 7V1.47C0 .65.65 0 1.47 0Z" style="fill:#1c2128;fill-opacity:1;stroke:#adbac7;stroke-width:.264583;stroke-linecap:butt;stroke-linejoin:round;stroke-dasharray:none;stroke-opacity:1;paint-order:normal" transform="matrix(128.27481 0 0 128.27293 16.97 -943.03)"/>
    <path fill="#fff" d="m738.2-366.06-41.73-77.07q29-47.38 22.98-102.18-6-54.8-46.31-95.1Q626.47-687.1 560-687.1t-113.14 46.67q-40.3 40.3-46.31 95.11-6.01 54.8 22.98 102.18l-41.72 77.07q-64.35-71.42-62.23-166.88 2.13-95.46 70.71-164.04Q461.01-767.7 560-767.7q99 0 169.7 70.72 68.6 68.58 70.72 164.04 2.12 95.46-62.23 166.88zM615.85 10.83H504.14V-231L362-159.58l198-367.7 197.99 367.7L615.86-231Z"/>
</svg>
