<svg xmlns="http://www.w3.org/2000/svg" width="28" height="28" viewBox="0 -960 1120 1120">
    <path d="M1.47 0H7c.81 0 1.47.65 1.47 1.47V7c0 .81-.66 1.47-1.47 1.47H1.47C.65 8.47 0 7.8 0 7V1.47C0 .65.65 0 1.47 0Z" style="fill:#1c2128;fill-opacity:1;stroke:#adbac7;stroke-width:.264583;stroke-linecap:butt;stroke-linejoin:round;stroke-dasharray:none;stroke-opacity:1;paint-order:normal" transform="matrix(128.27481 0 0 128.27293 16.97 -943.03)"/>
    <path fill="#fff" d="m662-250 25-84q54-13 88.5-56T810-490q0-66-47-113t-113-47q-57 0-100 34.5T494-527l-84 25q5-96 74-162t166-66q100 0 170 70t70 170q0 97-66 166t-162 74zM309-70l-79-79 171-171-151-50 400-120L530-90l-50-151z"/>
</svg>
