<svg xmlns="http://www.w3.org/2000/svg" id="svg2" width="28" height="28" fill="none" stroke="currentColor" stroke-linecap="round" stroke-linejoin="round" stroke-width="2" class="icon icon-tabler icon-tabler-copy" version="1.1">
    <style id="style1">
        path{stroke:#fff}
    </style>
    <g id="g2" transform="translate(2 2)">
        <path id="rect1" d="M1.47 0H7c.81 0 1.47.65 1.47 1.47V7c0 .81-.66 1.47-1.47 1.47H1.47C.65 8.47 0 7.8 0 7V1.47C0 .65.65 0 1.47 0Z" style="fill:#1c2128;fill-opacity:1;stroke:#adbac7;stroke-width:.264583;stroke-linecap:butt;stroke-linejoin:round;stroke-dasharray:none;stroke-opacity:1;paint-order:normal" transform="matrix(3.20687 0 0 3.20682 -1.58 -1.58)"/>
    </g>
    <g id="g3" transform="translate(2 2)">
        <path id="path1" d="M7 9.67A2.67 2.67 0 0 1 9.67 7h8.66A2.67 2.67 0 0 1 21 9.67v8.66A2.67 2.67 0 0 1 18.33 21H9.67A2.67 2.67 0 0 1 7 18.33Z"/>
        <path id="path2" d="M4.01 16.74A2 2 0 0 1 3 15V5c0-1.1.9-2 2-2h10c.75 0 1.16.38 1.5 1"/>
    </g>
</svg>
