<svg xmlns="http://www.w3.org/2000/svg" width="28" height="28" viewBox="0 -960 1120 1120">
    <path d="M1.47 0H7c.81 0 1.47.65 1.47 1.47V7c0 .81-.66 1.47-1.47 1.47H1.47C.65 8.47 0 7.8 0 7V1.47C0 .65.65 0 1.47 0Z" style="fill:#1c2128;fill-opacity:1;stroke:#adbac7;stroke-width:.264583;stroke-linecap:butt;stroke-linejoin:round;stroke-dasharray:none;stroke-opacity:1;paint-order:normal" transform="matrix(128.27481 0 0 128.27293 16.97 -943.03)"/>
    <path fill="#fff" d="M680-680q20 0 37.5 9t28.5 25l174 246-174 246q-11 16-28.5 25t-37.5 9H280q-33 0-56.5-23.5T200-200v-400q0-33 23.5-56.5T280-680zm-400 80v400zm400 0H280v400h400l142-200zm-96 40L480-456 376-560l-56 56 104 104-104 104 56 56 104-104 104 104 56-56-104-104 104-104z"/>
</svg>
