<svg xmlns="http://www.w3.org/2000/svg" width="28" height="28" fill="none" stroke="currentColor" stroke-linecap="round" stroke-linejoin="round" stroke-width="2" class="icon icon-tabler icon-tabler-player-track-prev-filled">
    <path d="M1.47 0H7c.81 0 1.47.65 1.47 1.47V7c0 .81-.66 1.47-1.47 1.47H1.47C.65 8.47 0 7.8 0 7V1.47C0 .65.65 0 1.47 0Z" style="fill:#1c2128;fill-opacity:1;stroke:#adbac7;stroke-width:.264583;stroke-linecap:butt;stroke-linejoin:round;stroke-dasharray:none;stroke-opacity:1;paint-order:normal" transform="matrix(3.20687 0 0 3.20682 .42 .42)"/>
    <path fill="currentColor" stroke="none" d="m21.07 7.8-6.4 5.6a.8.8 0 0 0 0 1.2l6.4 5.6a.8.8 0 0 0 1.33-.6V8.4a.8.8 0 0 0-1.33-.6zm-8.8 0-6.4 5.6a.8.8 0 0 0 0 1.2l6.4 5.6a.8.8 0 0 0 1.33-.6V8.4a.8.8 0 0 0-1.33-.6z" style="fill:#fff;stroke-width:1.6"/>
</svg>
