<svg xmlns="http://www.w3.org/2000/svg" width="28" height="28" viewBox="0 0 7.41 7.41">
    <path d="M1.47 0H7c.81 0 1.47.65 1.47 1.47V7c0 .81-.66 1.47-1.47 1.47H1.47C.65 8.47 0 7.8 0 7V1.47C0 .65.65 0 1.47 0Z" style="fill:#1c2128;fill-opacity:1;stroke:#adbac7;stroke-width:.264583;stroke-linecap:butt;stroke-linejoin:round;stroke-dasharray:none;stroke-opacity:1;paint-order:normal" transform="matrix(.84903 0 0 .84902 .11 .1)"/>
    <g style="fill:#fff;fill-opacity:1">
        <g style="fill:#fff;fill-opacity:1;stroke-width:.448906;stroke-dasharray:none">
            <path d="M106.89 150.28a.53.53 0 1 0 1.06 0 .53.53 0 1 0-1.06 0" style="fill:#fff;fill-opacity:1;stroke-width:.448906;stroke-dasharray:none" transform="translate(-69.62 -97.78) scale(.69287)"/>
            <path d="M107.42 149.75v-3.04m-1.32 1.19v.8l1.32.79m0-.39 1.32-.54v-.66" style="fill:none;fill-opacity:1;stroke:#fff;stroke-width:.448906;stroke-dasharray:none;stroke-opacity:1" transform="translate(-69.62 -97.78) scale(.69287)"/>
            <path d="M108.48 147.9h.53v-.53h-.53zm-2.63-.26a.27.27 0 1 0 .53 0 .27.27 0 1 0-.53 0m1.05-.93h1.05l-.53-.66z" style="fill:#fff;fill-opacity:1;stroke-width:.448906;stroke-dasharray:none" transform="translate(-69.62 -97.78) scale(.69287)"/>
        </g>
        <path d="M.94 2.28 3.6 4.4 2.27 5.45V1.22L3.6 2.28.95 4.4" style="fill:none;fill-opacity:1;stroke:#fff;stroke-width:.448906;stroke-dasharray:none;stroke-opacity:1" transform="translate(.93 .11) scale(.69287)"/>
        <path d="m99.58 156.1 4.97-4.97" style="fill:none;fill-opacity:1;stroke:#fff;stroke-width:.365;stroke-linecap:round;stroke-dasharray:none;stroke-opacity:1" transform="translate(-67.25 -102.45) scale(.69287)"/>
    </g>
</svg>
