<svg xmlns="http://www.w3.org/2000/svg" width="26" height="24" viewbox="0 0 24 26" fill="none" stroke="currentColor" stroke-linecap="round" stroke-linejoin="round" stroke-width="2" class="icon icon-tabler icon-tabler-player-play-filled" style="background-color: #1c2128">
    <path fill="#fff" stroke="none" d="M11.02 4v16a1 1 0 0 0 1.52.85l13-8a1 1 0 0 0 0-1.7l-13-8a1 1 0 0 0-1.52.85Z" style="fill:#fff;fill-opacity:1"/>
    <path fill="#fff" stroke="none" d="M1.6 3h2.72c.82 0 1.48.65 1.48 1.45V19.5c0 .8-.66 1.44-1.48 1.44h-2.7c-.82 0-1.48-.65-1.48-1.44V4.45C.14 3.65.8 3 1.61 3Z" style="fill:#fff;fill-opacity:1;stroke:none;stroke-width:0;stroke-dasharray:none"/>
</svg>
