<?xml version="1.0" encoding="UTF-8" standalone="no"?>
<svg
   width="32"
   height="32"
   viewBox="0 0 8.47 8.47"
   version="1.1"
   id="svg1"
   sodipodi:docname="power-stanby.svg"
   xml:space="preserve"
   inkscape:version="1.3.2 (091e20ef0f, 2023-11-25, custom)"
   xmlns:inkscape="http://www.inkscape.org/namespaces/inkscape"
   xmlns:sodipodi="http://sodipodi.sourceforge.net/DTD/sodipodi-0.dtd"
   xmlns="http://www.w3.org/2000/svg"
   xmlns:svg="http://www.w3.org/2000/svg"><defs
     id="defs1" /><sodipodi:namedview
     id="namedview1"
     pagecolor="#ffffff"
     bordercolor="#000000"
     borderopacity="0.25"
     inkscape:showpageshadow="2"
     inkscape:pageopacity="0.0"
     inkscape:pagecheckerboard="0"
     inkscape:deskcolor="#d1d1d1"
     inkscape:zoom="30.46875"
     inkscape:cx="16"
     inkscape:cy="16"
     inkscape:window-width="1696"
     inkscape:window-height="1364"
     inkscape:window-x="0"
     inkscape:window-y="0"
     inkscape:window-maximized="0"
     inkscape:current-layer="svg1" /><path
     d="M1.47 0H7c.81 0 1.47.65 1.47 1.47V7c0 .81-.66 1.47-1.47 1.47H1.47C.65 8.47 0 7.8 0 7V1.47C0 .65.65 0 1.47 0Z"
     style="fill:#1c2128;fill-opacity:1;stroke:#adbac7;stroke-width:.264583;stroke-linecap:butt;stroke-linejoin:round;stroke-dasharray:none;stroke-opacity:1;paint-order:normal"
     transform="translate(.13 .13) scale(.9697)"
     id="path1" /><path
     d="M 5.441975,2.6309938 5.0581781,3.0147907 C 5.5160875,3.2927126 5.823125,3.7929718 5.823125,4.3673437 A 1.588125,1.588125 0 0 1 4.235,5.9554688 1.588125,1.588125 0 0 1 2.646875,4.3673437 c 0,-0.5743719 0.3070375,-1.0746311 0.7623,-1.3551999 l -0.38115,-0.38115 C 2.477475,3.0121438 2.1175,3.6473938 2.1175,4.3673437 A 2.1175,2.1175 0 0 0 4.235,6.4848438 2.1175,2.1175 0 0 0 6.3525,4.3673437 C 6.3525,3.6473938 5.992525,3.0121438 5.441975,2.6309938 M 4.4996875,1.9851563 h -0.529375 v 2.6468749 h 0.529375"
     id="path1-5"
     style="stroke-width:0.264688;fill:#ffffff" /></svg>
