<svg xmlns="http://www.w3.org/2000/svg" id="svg2" width="28" height="28" fill="none" stroke="currentColor" stroke-linecap="round" stroke-linejoin="round" stroke-width="2" class="icon icon-tabler icon-tabler-camera" version="1.1">
    <style id="style1">
        path{stroke:#fff}
    </style>
    <path id="rect1" d="M1.47 0H7c.81 0 1.47.65 1.47 1.47V7c0 .81-.66 1.47-1.47 1.47H1.47C.65 8.47 0 7.8 0 7V1.47C0 .65.65 0 1.47 0Z" style="fill:#1c2128;fill-opacity:1;stroke:#adbac7;stroke-width:.264583;stroke-linecap:butt;stroke-linejoin:round;stroke-dasharray:none;stroke-opacity:1;paint-order:normal" transform="matrix(3.20687 0 0 3.20682 .42 .42)"/>
    <g id="g2" transform="translate(2 2)">
        <path id="path1" d="M5 7h1a2 2 0 0 0 2-2 1 1 0 0 1 1-1h6a1 1 0 0 1 1 1 2 2 0 0 0 2 2h1a2 2 0 0 1 2 2v9a2 2 0 0 1-2 2H5a2 2 0 0 1-2-2V9a2 2 0 0 1 2-2"/>
        <path id="path2" d="M9 13a3 3 0 1 0 6 0 3 3 0 0 0-6 0"/>
    </g>
</svg>
