<svg xmlns="http://www.w3.org/2000/svg" width="28" height="28" viewBox="0 0 7.41 7.41">
    <path d="M1.47 0H7c.81 0 1.47.65 1.47 1.47V7c0 .81-.66 1.47-1.47 1.47H1.47C.65 8.47 0 7.8 0 7V1.47C0 .65.65 0 1.47 0Z" style="fill:#1c2128;fill-opacity:1;stroke:#adbac7;stroke-width:.264583;stroke-linecap:butt;stroke-linejoin:round;stroke-dasharray:none;stroke-opacity:1;paint-order:normal" transform="matrix(.8485 0 0 .84848 .11 .11)"/>
    <path d="M51.85 38.32a13.53 13.53 0 0 1-13.53 13.53 13.53 13.53 0 0 1-13.53-13.53 13.53 13.53 0 0 1 13.53-13.53 13.53 13.53 0 0 1 13.53 13.53Z" style="fill:#fff;stroke-width:.30994;stroke-linecap:round" transform="matrix(.07 0 0 .07 .15 1.02)"/>
    <path d="m59.94 55.04 16.7-16.72-16.7-16.7v16.7z" style="color:#000;fill:#fff;stroke-linecap:round;-inkscape-stroke:none" transform="matrix(.07 0 0 .07 .15 1.02)"/>
</svg>
