<svg xmlns="http://www.w3.org/2000/svg" width="28" height="28" viewBox="0 0 7.41 7.41">
    <path d="M1.47 0H7c.81 0 1.47.65 1.47 1.47V7c0 .81-.66 1.47-1.47 1.47H1.47C.65 8.47 0 7.8 0 7V1.47C0 .65.65 0 1.47 0Z" style="fill:#1c2128;fill-opacity:1;stroke:#adbac7;stroke-width:.264583;stroke-linecap:butt;stroke-linejoin:round;stroke-dasharray:none;stroke-opacity:1;paint-order:normal" transform="matrix(.84848 0 0 .84847 .11 .11)"/>
    <g transform="matrix(.07 0 0 .07 -2.87 -5.76)">
        <circle cx="93.92" cy="135.22" r="13.53" style="fill:#fff;fill-opacity:1;stroke:none;stroke-width:.30994;stroke-linecap:round"/>
        <path d="M110.63 113.6 93.92 96.9 77.2 113.6h16.7zM77.2 156.84l16.72 16.71 16.71-16.7H93.92Zm38.34-4.9 16.7-16.72-16.7-16.7v16.7zM72.3 118.51l-16.7 16.71 16.71 16.72v-16.72z" style="color:#000;fill:#fff;stroke-linecap:round;-inkscape-stroke:none"/>
    </g>
</svg>
