<svg xmlns="http://www.w3.org/2000/svg" width="28" height="28" viewBox="0 -960 1120 1120">
    <path d="M1.47 0H7c.81 0 1.47.65 1.47 1.47V7c0 .81-.66 1.47-1.47 1.47H1.47C.65 8.47 0 7.8 0 7V1.47C0 .65.65 0 1.47 0Z" style="fill:#1c2128;fill-opacity:1;stroke:#adbac7;stroke-width:.264583;stroke-linecap:butt;stroke-linejoin:round;stroke-dasharray:none;stroke-opacity:1;paint-order:normal" transform="matrix(128.27481 0 0 128.27293 16.97 -943.03)"/>
    <path fill="#fff" d="M240.21-188.49v-240h80v160h480v-160h80v240z"/>
    <path d="M571.53-325.45h-60.52l-82.4-193.05h-2.36q4.56 22.06 4.56 47.4v145.65h-45.94v-266.51h60.88l81.67 191.04h2q-3.46-19.14-3.46-45.57v-145.47h45.57zm27.04-266.51h67.99q41.56 0 60.52 16.22 18.96 16.05 18.96 51.23 0 23.15-10.03 38.83-10.02 15.49-27.34 18.77v1.82q22.6 5.66 32.63 21.15 10.03 15.5 10.03 41.2 0 36.27-19.5 56.87-19.33 20.42-53.06 20.42h-80.2zm46.66 107.19h22.79q15.68 0 22.06-8.39 6.38-8.38 6.38-24.97 0-16.6-7.3-23.7-7.29-7.3-22.96-7.3h-20.97zm0 41.38v74.55h24.98q15.5 0 22.96-9.47 7.66-9.48 7.66-29.35 0-35.73-31.35-35.73z" aria-label="NB" style="fill:#fff;stroke-width:42.72;stroke-linejoin:round" transform="translate(.21 11.51)"/>
</svg>
