<svg xmlns="http://www.w3.org/2000/svg" width="28" height="28" fill="none" stroke="currentColor" stroke-linecap="round" stroke-linejoin="round" stroke-width="2" class="icon icon-tabler icon-tabler-volume-2">
    <path d="M1.47 0H7c.81 0 1.47.65 1.47 1.47V7c0 .81-.66 1.47-1.47 1.47H1.47C.65 8.47 0 7.8 0 7V1.47C0 .65.65 0 1.47 0Z" style="fill:#1c2128;fill-opacity:1;stroke:#adbac7;stroke-width:.264583;stroke-linecap:butt;stroke-linejoin:round;stroke-dasharray:none;stroke-opacity:1;paint-order:normal" transform="matrix(3.20687 0 0 3.20682 .42 .42)"/>
    <path d="M19 10a5 5 0 0 1 0 8m-9-1H8a1 1 0 0 1-1-1v-4a1 1 0 0 1 1-1h2l3.5-4.5A.8.8 0 0 1 15 7v14a.8.8 0 0 1-1.5.5L10 17" style="stroke:#fff"/>
</svg>
